/* XPM */
static char *_19731090b35418cda7d59e185feceddKUOaULzRB9A1MuaA[] = {
/* columns rows colors chars-per-pixel */
"64 64 89 1 ",
"  c None",
". c #1A141D",
"X c #1B141D",
"o c #1A141E",
"O c #1B141E",
"+ c #1A151E",
"@ c #1B151E",
"# c #1A141F",
"$ c #1B141F",
"% c #1A151F",
"& c #1B151F",
"* c #1C141E",
"= c #1C151E",
"- c #25222D",
"; c #262630",
": c #292731",
"> c #302A32",
", c #342E36",
"< c #2E303A",
"1 c #545A5F",
"2 c #465661",
"3 c #58707B",
"4 c #59737E",
"5 c #616266",
"6 c #666065",
"7 c #6A6469",
"8 c #6F686D",
"9 c #70696E",
"0 c #7B7378",
"q c #7E767B",
"w c #5A7480",
"e c #5F7B86",
"r c #627D87",
"t c #778787",
"y c #6F929E",
"u c #7198A3",
"i c #759DA9",
"p c #769EAA",
"a c #7AA1AC",
"s c #7BA2AD",
"d c #7CA1AD",
"f c #7EA2AD",
"g c #7DA4AD",
"h c #889B9A",
"j c #90A7A4",
"k c #80A5B0",
"l c #82A5B0",
"z c #84A7B1",
"x c #8BB0B6",
"c c #9BBEBF",
"v c #AEA7A8",
"b c #B2ABAB",
"n c #A6C1BD",
"m c #A2B9C1",
"M c #A2BAC1",
"N c #A8BEC4",
"B c #AABFC5",
"V c #AEC2C7",
"C c #B2C7C9",
"Z c #B0CEC8",
"A c #B2D3CD",
"S c #B4D4CE",
"D c #B5D5CF",
"F c #B5D6CF",
"G c #BCD1D0",
"H c #B8D8D1",
"J c #B9D9D2",
"K c #BAD9D2",
"L c #C5D4D5",
"P c #C2DDD6",
"I c #C4DED7",
"U c #CBDED8",
"Y c #CBDFDA",
"T c #D1DDD9",
"R c #E6DEDC",
"E c #CFE1DB",
"W c #DDE7E2",
"Q c #DEE7E2",
"! c #DEE8E3",
"~ c #DFE8E3",
"^ c #EFE7E4",
"/ c #EDEBE8",
"( c #EEECE9",
") c #F1EDEA",
"_ c #F5EDEA",
"` c #F6EEEA",
"' c #F4F0EC",
"] c #F9F1EE",
"[ c #FDF5F1",
/* pixels */
"                                                                ",
"                                                                ",
"                                                                ",
"                                                                ",
"                                                                ",
"                                                                ",
"                                                                ",
"                                                                ",
"                                                                ",
"                                                                ",
"                                                                ",
"                                                                ",
"                                                                ",
"                                                                ",
"                                                                ",
"                                                                ",
"                                                                ",
"                                                                ",
"                                                                ",
"                                                                ",
"                                                                ",
"                                                                ",
"                                                                ",
"                                                                ",
"                                                                ",
"                            =.%%%%=                             ",
"                            7qqqqq0>                            ",
"                           .b]]]]]^,.                           ",
"                         .6vR[NmmGYht.                          ",
"                         .9`[[fiicDJj=                          ",
"                         .9`miSJJJDge=                          ",
"                         =9`CxSJJIYke$                          ",
"                         $8`EHHFJQ)zr.                          ",
"                         $5TKHW/~LVfe.                          ",
"                         .1nAA()(Biyw%                          ",
"                           :rskklau<-                           ",
"                           .23w4w33;$                           ",
"                            %=$=.$=                             ",
"                                                                ",
"                                                                ",
"                                                                ",
"                                                                ",
"                                                                ",
"                                                                ",
"                                                                ",
"                                                                ",
"                                                                ",
"                                                                ",
"                                                                ",
"                                                                ",
"                                                                ",
"                                                                ",
"                                                                ",
"                                                                ",
"                                                                ",
"                                                                ",
"                                                                ",
"                                                                ",
"                                                                ",
"                                                                ",
"                                                                ",
"                                                                ",
"                                                                ",
"                                                                "
};
