/* XPM */
static char *_352c4d5038e4a00fdb61f66c82fe5a4Km4UgJ5SZ0St83g9[] = {
/* columns rows colors chars-per-pixel */
"64 64 73 1 ",
"  c None",
". c #EB7171",
"X c #526A97",
"o c #516A98",
"O c #526A98",
"+ c #536B98",
"@ c #57719A",
"# c #58739B",
"$ c #5B779C",
"% c #5B779D",
"& c #5C779C",
"* c #5F759F",
"= c #5D7A9D",
"- c #60759F",
"; c #687BA3",
": c #61809F",
"> c #6281A0",
", c #6383A0",
"< c #6F81A7",
"1 c #6689A2",
"2 c #688AA2",
"3 c #7088A7",
"4 c #7D8DAE",
"5 c #7D8DAF",
"6 c #6C90A4",
"7 c #6C90A5",
"8 c #6E94A6",
"9 c #7097A7",
"0 c #7197A7",
"q c #7596A9",
"w c #7995AC",
"e c #759DA9",
"r c #7D9BAE",
"t c #7DA2AD",
"y c #8896B4",
"u c #929FB9",
"i c #86A8B2",
"p c #97B3BB",
"a c #9DB5BF",
"s c #EF9291",
"d c #F09291",
"f c #A1ACC1",
"g c #A7B0C4",
"h c #A8BEC4",
"j c #B9BECD",
"k c #B1C3C8",
"l c #BDC1CF",
"z c #B9C9CD",
"x c #BDC1D0",
"c c #C1CED2",
"v c #CAD4D6",
"b c #D2D2DB",
"n c #D2D3DB",
"m c #D5D5DC",
"M c #D7D9DD",
"N c #DBDFDF",
"B c #F6C3C1",
"V c #F8CCC9",
"C c #F8D4D1",
"Z c #F9D4D1",
"A c #FADCD9",
"S c #DDDBE0",
"D c #E7E4E6",
"F c #E8E4E6",
"G c #ECEAE8",
"H c #FBE4E1",
"J c #FBE5E1",
"K c #F2ECEB",
"L c #F2EDEC",
"P c #FCEDE9",
"I c #F5F0EC",
"U c #F5F0ED",
"Y c #FDF5F1",
/* pixels */
"                                                                ",
"                                                                ",
"                                                                ",
"                                                                ",
"                                                                ",
"                                                                ",
"                                                                ",
"                                                                ",
"                                                                ",
"                                                                ",
"                                                                ",
"                                                                ",
"                                                                ",
"                            OO++XXoo                            ",
"                           +OOOO+++o+                           ",
"                           +OOOO++oo+                           ",
"                      ++ooOFYYYYYYYYDo++++                      ",
"                      o+o+OFYYYYYYYYD+++++                      ",
"                    ++ffgggLYYYYYYYYLfggff+X                    ",
"                    ++FYYYYYYYYYYYYYYYYYYF++                    ",
"                    ;;DYYYYYYYYYYYYYYYYYYF;;                    ",
"                 ++5YYYYYYYYYYYYYYYYYYYYYYYY5++                 ",
"                 ++5YYYYYYYYYYYYYYYYYYYYYYYY5++                 ",
"                 ++5YYYYYYYYYYYYYYYYYYYYYYYY5++                 ",
"                 ++4YYYYYYYYYYYYYYYYYYYYYYYY4++                 ",
"                 <;yYYYYYYYYYKFFYYYYYFFLYYYYu;*                 ",
"               ++bYYYYYYYYYYYgooYYYYFO+jYYYYYYb++               ",
"               ++bYYYYYYYYYYYgooYYYYFOOcYYYYYYb++               ",
"               ++bYYYYYYCssHYf++YYYYFOOjYPssAYb++               ",
"               ++bYYYYYYB..HYg++YYYYFOOxYJ..CYb++               ",
"               45SYYYYYYVssPYx55YYYYF5ybYJdsAYm%%               ",
"            ++4YYYYYYYYYYYYYYYYYYYYYYYYUYYYYYYNee%++            ",
"            ++4YYYYYYYYYYYYYYYYYYYYYYYYYYYYYYYNee%++            ",
"          ++jbSYYYYYYYYYYYYYYYYYYYYYYYYYYYYYYYNee871++          ",
"          ++bYYYYYYYYYYYYYYYYYYYYYYYYYYYYYYYYYNeeee7++          ",
"          ++bYYYYYYINNUYYYYYYYYYYYYYYYYYYYYYYYNeeee7++          ",
"          ++bYYYYYYNeeGYYYYYYYYYYYYYYYYYYYYYYYNeeee7o+          ",
"          ++bYYYYYYNeeGYYYYYYYYYYYYYYYYYYYYYYYNeeet2+o          ",
"            *;3iiiihGGYYYYYYYYYYYYYYYYYYYYYYYYNee=@#            ",
"            ++%eeeepYYYYYYYYYYYYYYYYYYYYYYYYYYNee%++            ",
"             +@21ahzYYYYYYYYYYYYYYYYYYYYYLvvUYM11*+X            ",
"               +XnYYYYYYYYYYYYYYYYYYYYYYYGeeNYm+X               ",
"               ++bYYYYYYYYYYYYYYYYYYYYYYYGeeNYvoX               ",
"               ++qihYYYYYYYpicYYYYYYYYYYYGeetiro+               ",
"               Xo6epYYYYYYYiezYYYYYYYYYYYGeeee6o+               ",
"               +o;,qzzzzzzztezYYYYYYLlzzzkee2,;+X               ",
"                 ++%eeeeeeeeezYYYYYYGeeeeeee*++                 ",
"                 +X%eeeeeeeeezYYYYYYGeeeeeee%++                 ",
"                    +++++oo8eeeeeeee8o+++o++                    ",
"                    ++++oo+9eeeeeeee9+++o+++                    ",
"                    XXXXXX+;>>>>>,>>>+XXooXX                    ",
"                           o+++++++++                           ",
"                           ++++++++++                           ",
"                                                                ",
"                                                                ",
"                                                                ",
"                                                                ",
"                                                                ",
"                                                                ",
"                                                                ",
"                                                                ",
"                                                                ",
"                                                                ",
"                                                                "
};
