/* XPM */
static char *_9b92aac353f4e30bb1daf635306dcce8XDx83dIzxdWX4Uo[] = {
/* columns rows colors chars-per-pixel */
"64 64 2 1 ",
"  c #74CF45",
". c #A5EA6F",
/* pixels */
"                            ....                                ",
"                            ....                                ",
"                            ....                                ",
"                            ....                                ",
"                                ....            ....            ",
"                                ....            ....            ",
"                                ....            ....            ",
"                                ....            ....            ",
"                                ....            ....            ",
"                                ....            ....            ",
"                                ....            ....            ",
"                                ....            ....            ",
"            ....                                                ",
"            ....                                                ",
"            ....                                                ",
"            ....                                                ",
"            ....                                                ",
"            ....                                                ",
"            ....                                                ",
"            ....                                                ",
"                                        ....                    ",
"                                        ....                    ",
"                                        ....                    ",
"                                        ....                    ",
"                                            ....                ",
"                                            ....                ",
"                                            ....                ",
"                                            ....                ",
"            ....                            ....                ",
"            ....                            ....                ",
"            ....                            ....                ",
"            ....                            ....                ",
"....            ....                                            ",
"....            ....                                            ",
"....            ....                                            ",
"....            ....                                            ",
"....            ....                                            ",
"....            ....                                            ",
"....            ....                                            ",
"....            ....                                            ",
"                                ....                            ",
"                                ....                            ",
"                                ....                            ",
"                                ....                            ",
"                                ....                            ",
"                                ....                            ",
"                                ....                            ",
"                                ....                            ",
"                                                ....            ",
"                                                ....            ",
"                                                ....            ",
"                                                ....            ",
"....                                        ....                ",
"....                                        ....                ",
"....                                        ....                ",
"....                                        ....                ",
"    ....                                    ....                ",
"    ....                                    ....                ",
"    ....                                    ....                ",
"    ....                                    ....                ",
"    ....                                                        ",
"    ....                                                        ",
"    ....                                                        ",
"    ....                                                        "
};
