/* XPM */
static char *_9ccf32bc790413cfeed9820e0fcaf71DD88Onzvi1tytgi7[] = {
/* columns rows colors chars-per-pixel */
"64 64 169 2 ",
"   c None",
".  c #1B131E",
"X  c #1B131F",
"o  c #1C131E",
"O  c #1A141D",
"+  c #1B141E",
"@  c #1B151E",
"#  c #1B141F",
"$  c #1C141D",
"%  c #1C141F",
"&  c #21181F",
"*  c #201720",
"=  c #211720",
"-  c #251C22",
";  c #261C23",
":  c #261E27",
">  c #291C23",
",  c #2A1C23",
"<  c #2A1E26",
"1  c #2A1F26",
"2  c #2F1F25",
"3  c #2F2227",
"4  c #312126",
"5  c #362227",
"6  c #3B2727",
"7  c #322629",
"8  c #34272A",
"9  c #3C2828",
"0  c #38292C",
"q  c #392A2D",
"w  c #3E292C",
"e  c #3B2C2D",
"r  c #3C2D2D",
"t  c #3A2E31",
"y  c #44272C",
"u  c #452D2B",
"i  c #482F2D",
"p  c #522E30",
"a  c #433030",
"s  c #453432",
"d  c #453B3F",
"f  c #513430",
"g  c #593233",
"h  c #653837",
"j  c #6A3B39",
"k  c #703C3B",
"l  c #59423A",
"z  c #664036",
"x  c #664136",
"c  c #6A4338",
"v  c #774A3C",
"b  c #7F4F3E",
"n  c #564C4D",
"m  c #794644",
"M  c #6C5143",
"N  c #745748",
"B  c #7C5D4A",
"V  c #745C52",
"C  c #7F604C",
"Z  c #736460",
"A  c #736B6E",
"S  c #736C70",
"D  c #874743",
"F  c #834F41",
"G  c #974E49",
"H  c #945149",
"J  c #9A504A",
"K  c #9B514A",
"L  c #9C524B",
"P  c #9E534B",
"I  c #9E544B",
"U  c #9E564E",
"Y  c #9E564F",
"T  c #9E5750",
"R  c #9D5852",
"E  c #9D5853",
"W  c #A1564C",
"Q  c #A15A4B",
"!  c #A25C4B",
"~  c #A55B4D",
"^  c #A65B4D",
"/  c #A95E4E",
"(  c #AA5E4E",
")  c #9D6148",
"_  c #896652",
"`  c #8A6853",
"'  c #9E775C",
"]  c #AC604F",
"[  c #AE634F",
"{  c #A8684C",
"}  c #AE694E",
"|  c #B0644F",
" . c #B26550",
".. c #B56750",
"X. c #B76A51",
"o. c #B86A51",
"O. c #B96B52",
"+. c #BC6F52",
"@. c #BD6F52",
"#. c #A67D5F",
"$. c #B97251",
"%. c #A07B62",
"&. c #A77C60",
"*. c #C07253",
"=. c #C07653",
"-. c #C17653",
";. c #C27354",
":. c #C47554",
">. c #C57954",
",. c #C77855",
"<. c #C97A56",
"1. c #CA7C56",
"2. c #CC7D57",
"3. c #CD7D57",
"4. c #CE7F57",
"5. c #CF7F58",
"6. c #B88A67",
"7. c #D08058",
"8. c #C1926F",
"9. c #C4916D",
"0. c #C5936E",
"q. c #DE9D75",
"w. c #DBA478",
"e. c #E2A17B",
"r. c #E2AA7C",
"t. c #B7A296",
"y. c #BDB3B2",
"u. c #C29E83",
"i. c #E3AC81",
"p. c #E2AB8E",
"a. c #EDB181",
"s. c #FFBF89",
"d. c #E1B096",
"f. c #E9B993",
"g. c #D6B5A6",
"h. c #E1BCAF",
"j. c #FFC08B",
"k. c #FFC18E",
"l. c #FFC492",
"z. c #FFC696",
"x. c #FFC798",
"c. c #FFC799",
"v. c #FFCCA3",
"b. c #F2CEB2",
"n. c #ECD1BD",
"m. c #FFD3B0",
"M. c #FED7B7",
"N. c #FEDABC",
"B. c #FEDBBF",
"V. c #E0C7C2",
"C. c #FEDDC3",
"Z. c #F3DCCB",
"A. c #FEE1CC",
"S. c #FEE4D1",
"D. c #FEE5D2",
"F. c #FEE8D9",
"G. c #FEE8DA",
"H. c #FDEADB",
"J. c #FEEADB",
"K. c #FEEBDE",
"L. c #EBE4E0",
"P. c #FEEEE4",
"I. c #FEEFE5",
"U. c #FCF0E8",
"Y. c #FDF2EB",
"T. c #FDF3EC",
"R. c #FDF3ED",
"E. c #FDF3EE",
"W. c #FDF5F1",
/* pixels */
"                                                                                                                                ",
"                                                                                                                                ",
"                                                                                                                                ",
"                                                                                                                                ",
"                                                                                                                                ",
"                                                                                                                                ",
"                                                                                                                                ",
"                                                                                                                                ",
"                                                                                                                                ",
"                                                                                                                                ",
"                                                                                                                                ",
"                                                                                                                                ",
"                                                                                                                                ",
"                                                                                                                                ",
"                                                                                                                                ",
"                                                                                                                                ",
"                                                                                                                                ",
"                                                                                                                                ",
"                                                                                                                                ",
"                                                                                                                                ",
"                                                                                                                                ",
"                                                                                                                                ",
"                                                          @ @ @ @ . @ .                                                         ",
"                                                        l N Z S A A V M                                                         ",
"                                                      @ C s.C.W.W.Y.v.r.0 .                                                     ",
"                                                    a _ u.C.F.W.W.R.A.b.%.B <                                                   ",
"                                                  . s a.M.W.W.W.W.W.W.I.z.6.; $                                                 ",
"                                                  @ d n.F.W.W.W.W.W.W.R.D.t.: $                                                 ",
"                                                  8 n L.W.W.W.W.W.W.W.W.W.y.t 7                                                 ",
"                                              @ q 0.f.U.W.W.W.W.W.W.W.W.W.Z.i.' .                                               ",
"                                              @ e w.c.F.I.W.W.W.I.K.T.W.W.S.k.#..                                               ",
"                                              @ e w.j.l.N.W.W.W.m.c.F.W.W.D.k.#.@                                               ",
"                                              # r &.0.q.d.V.V.V.p.e.h.V.V.g.8.` @                                               ",
"                                                  < 9 H T E E E U U E E E m 3 ;                                                 ",
"                                                  # 5 ^ [ ] W G ^ ( ] ( J k & .                                                 ",
"                                                  @ 9 $.4.5.[ J @.4.7.,.P k & $                                                 ",
"                                                    6 z F [ ..o.<.5.X.! g y                                                     ",
"                                                      @ p G o.7.5.4.^ D , $                                                     ",
"                                                      @ z :.1.5. .^ @.} 2 $                                                     ",
"                                                      @ c 7.7.5.( J ;.$.4 $                                                     ",
"                                                          , j L +.-.f ,                                                         ",
"                                                          @ h L $.<.i o                                                         ",
"                                                          @ b 5.5.,.i X                                                         ",
"                                                          $ v { { ) u %                                                         ",
"                                                            & * * *                                                             ",
"                                                              o . .                                                             ",
"                                                                                                                                ",
"                                                                                                                                ",
"                                                                                                                                ",
"                                                                                                                                ",
"                                                                                                                                ",
"                                                                                                                                ",
"                                                                                                                                ",
"                                                                                                                                ",
"                                                                                                                                ",
"                                                                                                                                ",
"                                                                                                                                ",
"                                                                                                                                ",
"                                                                                                                                ",
"                                                                                                                                ",
"                                                                                                                                ",
"                                                                                                                                ",
"                                                                                                                                ",
"                                                                                                                                "
};
