/* XPM */
static char *_30d281d206c432eea63f06a80f610210w7tbHlOZCBuloqb[] = {
/* columns rows colors chars-per-pixel */
"64 64 68 1 ",
"  c None",
". c #1B131E",
"X c #1B141E",
"o c #1B141F",
"O c #1C141E",
"+ c #2A1B23",
"@ c #302023",
"# c #312126",
"$ c #352729",
"% c #3A2229",
"& c #49292E",
"* c #4A2A2E",
"= c #482F2D",
"- c #4A2E2C",
"; c #573632",
": c #593133",
"> c #5F3D33",
", c #543F39",
"< c #683B38",
"1 c #703F3A",
"2 c #564038",
"3 c #5D453D",
"4 c #72473A",
"5 c #77453C",
"6 c #754A3B",
"7 c #7D4E3D",
"8 c #664D41",
"9 c #674D41",
"0 c #734D44",
"q c #705446",
"w c #705546",
"e c #725646",
"r c #735647",
"t c #7A544D",
"y c #6F686D",
"u c #706260",
"i c #70686D",
"p c #974E49",
"a c #9E554B",
"s c #A55B4D",
"d c #8D6A53",
"f c #AD614E",
"g c #B46750",
"h c #B86A51",
"j c #BB6D52",
"k c #B16A59",
"l c #AA7F61",
"z c #B17166",
"x c #B07873",
"c c #C27354",
"v c #C97956",
"b c #C97A56",
"n c #CC7D57",
"m c #D08058",
"M c #C6946E",
"N c #A99081",
"B c #A8A1A2",
"V c #D4B096",
"C c #D3B39C",
"Z c #FFBF89",
"A c #E1BEA3",
"S c #FFC696",
"D c #FFCCA3",
"F c #FED3B0",
"G c #FEDABD",
"H c #FEE1CA",
"J c #FDEBDE",
"K c #FDF5F1",
/* pixels */
"                                                                ",
"                                                                ",
"                                                                ",
"                                                                ",
"                                                                ",
"                                                                ",
"                                                                ",
"                                                                ",
"                                                                ",
"                                                                ",
"                                                                ",
"                                                                ",
"                                                                ",
"                          ...........                           ",
"                         OXXXX..XXXXXO                          ",
"                         OXXX...XXXXXO                          ",
"                       ..qllNBBBBBNll6XX                        ",
"                       XXdSZGKKKKKFZSdXX                        ",
"                       XXdZZGKKKKKGSZdXX                        ",
"                    ..9llVHHJKKKKKJHGVllwXX                     ",
"                    XXqZZGKKKKKKKKKKKGSZwXX                     ",
"                    XXqZZGKKKKKKKKKKKGSZwXX                     ",
"                    XXuHHJKKKKKKKKKKKJHHuXX                     ",
"                    XXyKKKKKKKKKKKKKKKKKiXX                     ",
"                    XXyKKKKKKKKKKKKKKKKKiOO                     ",
"                 Xo3MMAKKKKKKKKKKKKKKKKKCMMeOO                  ",
"                 XXqZZFKKKKKKKKKKKKKKKKKFSSwXX                  ",
"                 XXqZZFKKKKKKKKKKKKKKKKKFSMwXX                  ",
"                 XXqZZSDDHKKKKKHDSHKKKKKFSZwXX                  ",
"                 XXqZZZZZGKKKKKGSSGKKKKKDZZ6XX                  ",
"                 XXqZZZZZGKKKKKGZZGKKKKKFSSqXX                  ",
"                   2,,0kkzxxxxxzkgzxxxxlt2;$                    ",
"                    XX*ppppppppppppppppp*XX                     ",
"                    XX*ppppppppppppppppp*XX                     ",
"                    XX;cccccfppfcccccfpp*XX                     ",
"                    XX>mmmmngppgmmmmmgpp*XX                     ",
"                    XX>mmmmmgppgmmmnmgpp*XX                     ",
"                      ---5sshccbmmjss4%%+                       ",
"                       OO:ppgnmmmmgpp:..                        ",
"                       OO:pphmmnmmgpp:..                        ",
"                       XX4bbnmnjaagbb4XX                        ",
"                       XX6nmmmngppgmm6XX                        ",
"                       XX6mmmnngppgmm6XX                        ",
"                         ###<ssgbb7##@                          ",
"                         OXX:ppgnm6XXO                          ",
"                         OXX:ppgmm6OXO                          ",
"                         OOO4bbnmm6OXO                          ",
"                         OOO6nmmmm6OXO                          ",
"                         OXX6mmmmm6XXO                          ",
"                            @#####@                             ",
"                            OXXXXXO                             ",
"                            OXXXXXO                             ",
"                                                                ",
"                                                                ",
"                                                                ",
"                                                                ",
"                                                                ",
"                                                                ",
"                                                                ",
"                                                                ",
"                                                                ",
"                                                                ",
"                                                                ",
"                                                                "
};
