/* XPM */
static char *_449765684ce412fab33594e0ed628d1AhaNKngiWqN4oM4h[] = {
/* columns rows colors chars-per-pixel */
"64 64 82 1 ",
"  c None",
". c #1B131E",
"X c #1B141E",
"o c #1B141F",
"O c #291C22",
"+ c #2B1C23",
"@ c #2D1C29",
"# c #351F2E",
"$ c #312126",
"% c #36242F",
"& c #3A2229",
"* c #3D2432",
"= c #3D2434",
"- c #382831",
"; c #442C2C",
": c #482F2D",
"> c #4D312D",
", c #50332F",
"< c #4F2A3E",
"1 c #553032",
"2 c #693838",
"3 c #78403F",
"4 c #532B40",
"5 c #5E3144",
"6 c #733A55",
"7 c #7C3E5A",
"8 c #874A42",
"9 c #824E40",
"0 c #974E49",
"q c #8E5044",
"w c #8C5842",
"e c #9E554B",
"r c #854450",
"t c #A1574C",
"y c #A55B4D",
"u c #A95E4E",
"i c #AC565E",
"p c #9F6249",
"a c #A3654A",
"s c #B06450",
"d c #B86A51",
"f c #BB6D52",
"g c #914767",
"h c #9C4B6E",
"j c #9C4C6E",
"k c #9F5470",
"l c #AD5A60",
"z c #B6577D",
"x c #B6577E",
"c c #AF6362",
"v c #B16763",
"b c #A46575",
"n c #A66E78",
"m c #A9777B",
"M c #AA777B",
"N c #C27354",
"B c #C97956",
"V c #CC7D57",
"C c #D08058",
"Z c #B96080",
"A c #B86888",
"S c #EA6D9D",
"D c #ED769F",
"F c #EE7AA1",
"G c #EF7EA2",
"H c #DB8597",
"J c #F38BA6",
"K c #EB93A2",
"L c #F798AA",
"P c #F899AA",
"I c #EF8FB2",
"U c #FAA1AD",
"Y c #FBA4AD",
"T c #FCA9AF",
"R c #F9A9B5",
"E c #FFB2B2",
"W c #FFC3C2",
"Q c #F9C2CC",
"! c #FFCCCA",
"~ c #F6C2D2",
"^ c #FEE4E1",
"/ c #FDF5F1",
/* pixels */
"                                                                ",
"                                                                ",
"                                                                ",
"                                                                ",
"                                                                ",
"                                                                ",
"                                                                ",
"                                                                ",
"                                                                ",
"                                                                ",
"                                                                ",
"                                                                ",
"                                                                ",
"                           ...........                          ",
"                          XXXXXXXXXXXX                          ",
"                          oXXXXXXXXXXX                          ",
"                        ..gjjnmmMMMkjj*..                       ",
"                       .XXxSSUEEEEEGSS<XX                       ",
"                       .XXxSSUEEEEEGSS<XX                       ",
"                     ..6jjHLLTEEEEEQ~~Ajj@..                    ",
"                    .XXhSSUEEEEEEEE^//ISS#XX                    ",
"                    .XXhSSUEEEEEEEE^//ISS#XX                    ",
"                    .XXbLLTEEEEEEEEW!!RLL%XX                    ",
"                    .XXmEEEEEEEEEEEEEEEEE-XX                    ",
"                    .XXmEEEEEEEEEEEEEEEEE-XX                    ",
"                  oX7xxKEEEEEEEEEEEEEEEEExxx=XX                 ",
"                 .XXhSSPEEEEEEEEEEEEEEEEEDSS%XX                 ",
"                 .XXhSSPEEEEEEEEEEEEEEEEEDSS#XX                 ",
"                 .XXhSSFGGYEEEEEJGGYEEEEEDSS#XX                 ",
"                 .XXhSSSSSUEEEEEGSSUEEEEEDSS#XX                 ",
"                 .XXhSSSSSUEEEEEGSSUEEEEEFSS#XX                 ",
"                    4<<riicvvvvvliicvvvvv5<<                    ",
"                    .XX200000000000000000+XX                    ",
"                    .XX200000000000000000+XX                    ",
"                    .XX9NNNNNt00dNNNNNt00+XX                    ",
"                    .XXwCCCCCy00NCCCCCy00+XX                    ",
"                    XXXwCCCCCy00NCCCCCy00+XX                    ",
"                       >>;qyyfNNVCCsyy1&&                       ",
"                       XXX300NCCCCCy00&XX                       ",
"                       XXX300NCCCCCy00&XX                       ",
"                       .XXpBBVCCueeNBB;XX                       ",
"                       .XXaCCCCCy00NCC:XX                       ",
"                       .XXaCCCCCy00NCC>XX                       ",
"                          +$$8eefBB1$$                          ",
"                          oXX300NCC:XX                          ",
"                          oXX300NCC:XX                          ",
"                          XXXpBBCCC:XX                          ",
"                          oXXaCCCCC:XX                          ",
"                          XXXaCCCCC>XX                          ",
"                             +$$$$$                             ",
"                             oXXXXX                             ",
"                             oXXXXX                             ",
"                                                                ",
"                                                                ",
"                                                                ",
"                                                                ",
"                                                                ",
"                                                                ",
"                                                                ",
"                                                                ",
"                                                                ",
"                                                                ",
"                                                                ",
"                                                                "
};
