/* XPM */
static char *_265313231294a4fe571bf5a69dd58ccX4rKB5ALgrwok6Ch[] = {
/* columns rows colors chars-per-pixel */
"64 64 38 1 ",
"  c None",
". c #180601",
"X c #370F03",
"o c #570D00",
"O c #461505",
"+ c #571C08",
"@ c #571F0D",
"# c #73250E",
"$ c #73260E",
"% c #813600",
"& c #943315",
"* c #8D4700",
"= c #934502",
"- c #B86804",
"; c #C36A1E",
": c #C97916",
"> c #DB781E",
", c #DB8214",
"< c #D5841F",
"1 c #EB8F1D",
"2 c #E18E27",
"3 c #EC9623",
"4 c #ED982B",
"5 c #EB9D36",
"6 c #EC9F35",
"7 c #EF9E38",
"8 c #E79041",
"9 c #D5A643",
"0 c #F1A842",
"q c #F5B150",
"w c #F9BF5E",
"e c #F2C758",
"r c #FAC866",
"t c #FBC968",
"y c #FFD979",
"u c #FFE37F",
"i c #FFF5B5",
"p c white",
/* pixels */
"                                                                ",
"                                                                ",
"                                                                ",
"                                                                ",
"                                                                ",
"                                                                ",
"                                                                ",
"                                                                ",
"                                                                ",
"                                                                ",
"                                                                ",
"                                                                ",
"                      oooooooooooooooooooo                      ",
"                      oooooooooooooooooooo                      ",
"                  oo--3366qqqqqqqqqqqq66>>--oo                  ",
"                  oo--3366qqqqqqqqqqqq66>>--oo                  ",
"                oo3366qqqqqqqqqqqqqqyyqqqq66>>oo                ",
"                oo3366qqqqqqqqqqqqqqyyqqqq66>>oo                ",
"              oo3366qqwwqqqqqqiiqqqqqqwwqqqq66>>oo              ",
"              oo3366qqwwqqqqqqiiqqqqqqwwqqqq66>>oo              ",
"              %%66qqqqqqqqqqqqqqqqqqqqqqqqiiqq66%%              ",
"              %%66qqqqqqqqqqqqqqqqqqqqqqqqiiqq66%%              ",
"            oo33qqttyyttwwqqqqqqqqyyqq00wwqqqqqq>>oo            ",
"            oo33qqttyyttwwqqqqqqqqyyqq00wwqqqqqq>>oo            ",
"            ooqqttyyyyyyyyyywwwwqqwwqq66yyqqqq66>>oo            ",
"            ooqqttyyyyyyyyyywwwwqqwwqq66yyqqqq66>>oo            ",
"            oo33yyttyyttyyyyyyyywwyy0088ww00qqtt33oo            ",
"            oo33yyttyyttyyyyyyyywwyy0088ww00qqtt33oo            ",
"            oo--33qqiiqqiittyyyyttyy6688tt88tt33--oo            ",
"            oo--33qqiiqqiittyyyyttyy6688tt88tt33--oo            ",
"          XX;;eeee;;======;;<<<<222222<<::--==9999..            ",
"          XX;;eeee;;======;;<<<<222222<<::--==9999..            ",
"          XX;;uu;;&&##@@;;eeeeeeeeeeeeeeeeee99&&&&$$..          ",
"          XX;;uu;;&&##@@;;eeeeeeeeeeeeeeeeee99&&&&$$..          ",
"          XX##&&##&&&&##&&##;;;;uuppuuuuuu;;###$OO$$..          ",
"          XX##&&##&&&&##&&##;;;;uuppuuuuuu;;####OO$$..          ",
"            XX++++##&&##&&&&&&&&;;eeeeee;;&&&&##++OO..          ",
"            XX++++##&&##&&&&&&&&;;eeeeee;;&&&&##++OO..          ",
"            ooXXXX++OO++##++####&&;;ee####++OO++++XX            ",
"            ooXXXX++OO++##++####&&;;ee####++OO++++XX            ",
"            oo44--XXOO++++OO++++OOOOOO++OOXXOO++XXoo            ",
"            oo44--XXOO++++OO++++OOOOOO++OOXXOO++XXoo            ",
"            oorrqqrr--**XXXX++++XXXXXX++XXOO**--,,oo            ",
"            oorrqqrr--**XXXX++++XXXXXX++XXOO**--,,oo            ",
"              oo44rr77qq77qqqqqq7777qq7755,,,,--oo              ",
"              oo44rr77qq77qqqqqq7777qq7755,,,,--oo              ",
"                %%qqqqiiyyyyrrrrqqqqqq5555,,,,%%                ",
"                %%qqqqiiyyyyrrrrqqqqqq5555,,,,%%                ",
"                  oo%%qq44qqqqqq7777qq7711%%oo                  ",
"                  oo%%qq44qqqqqq7777qq7711%%oo                  ",
"                      oo%%%%%%%%%%%%%%%%oo                      ",
"                      oo%%%%%%%%%%%%%%%%oo                      ",
"                                                                ",
"                                                                ",
"                                                                ",
"                                                                ",
"                                                                ",
"                                                                ",
"                                                                ",
"                                                                ",
"                                                                ",
"                                                                ",
"                                                                ",
"                                                                "
};
