/* XPM */
static char *dee5d35737004cd59a5a72c3513970108n89zn5gYN8AQ5RS[] = {
/* columns rows colors chars-per-pixel */
"64 64 7 1 ",
"  c None",
". c #1B141E",
"X c #BE5340",
"o c #EB8A06",
"O c #759DA9",
"+ c #B8D8D1",
"@ c #FDF5F1",
/* pixels */
"             ....    ........................                   ",
"             ....    ........................                   ",
"             ....    ........................                   ",
"             ....    ........................                   ",
"         ............................................           ",
"         ............................................           ",
"         ............................................           ",
"         ............................................           ",
"             ........................................           ",
"             ........................................           ",
"             ........................................           ",
"             ........................................           ",
"         ............OOOO@@@@@@@@++++....++++@@@@OOOO....       ",
"         ............OOOO@@@@@@@@++++....++++@@@@OOOO....       ",
"         ............OOOO@@@@@@@@++++....++++@@@@OOOO....       ",
"         ............OOOO@@@@@@@@++++....++++@@@@OOOO....       ",
"         ............@@@@@@@@....@@@@@@@@@@@@....@@@@....       ",
"         ............@@@@@@@@....@@@@@@@@@@@@....@@@@....       ",
"         ............@@@@@@@@....@@@@@@@@@@@@....@@@@....       ",
"         ............@@@@@@@@....@@@@@@@@@@@@....@@@@....       ",
"         ............@@@@@@@@....@@@@@@@@@@@@....@@@@....       ",
"         ............@@@@@@@@....@@@@@@@@@@@@....@@@@....       ",
"         ............@@@@@@@@....@@@@@@@@@@@@....@@@@....       ",
"         ............@@@@@@@@....@@@@@@@@@@@@....@@@@....       ",
"         ............@@@@@@@@@@@@oooooooooooo@@@@@@@@....       ",
"         ............@@@@@@@@@@@@oooooooooooo@@@@@@@@....       ",
"         ............@@@@@@@@@@@@oooooooooooo@@@@@@@@....       ",
"         ............@@@@@@@@@@@@oooooooooooo@@@@@@@@....       ",
"         ............OOOO@@@@@@@@XXXXXXXX@@@@@@@@OOOO....       ",
"         ............OOOO@@@@@@@@XXXXXXXX@@@@@@@@OOOO....       ",
"         ............OOOO@@@@@@@@XXXXXXXX@@@@@@@@OOOO....       ",
"         ............OOOO@@@@@@@@XXXXXXXX@@@@@@@@OOOO....       ",
"             ................++++@@@@@@@@@@@@++++....           ",
"             ................++++@@@@@@@@@@@@++++....           ",
"             ................++++@@@@@@@@@@@@++++....           ",
"             ................++++@@@@@@@@@@@@++++....           ",
"         ................++++@@@@@@@@@@@@@@@@@@@@++++....       ",
"         ................++++@@@@@@@@@@@@@@@@@@@@++++....       ",
"         ................++++@@@@@@@@@@@@@@@@@@@@++++....       ",
"         ................++++@@@@@@@@@@@@@@@@@@@@++++....       ",
"     ............OOOO....@@@@@@@@@@@@@@@@@@@@@@@@@@@@........   ",
"     ............OOOO....@@@@@@@@@@@@@@@@@@@@@@@@@@@@........   ",
"     ............OOOO....@@@@@@@@@@@@@@@@@@@@@@@@@@@@........   ",
"     ............OOOO....@@@@@@@@@@@@@@@@@@@@@@@@@@@@........   ",
"     ............OOOO....++++@@@@@@@@@@@@@@@@@@@@++++........   ",
"     ............OOOO....++++@@@@@@@@@@@@@@@@@@@@++++........   ",
"     ............OOOO....++++@@@@@@@@@@@@@@@@@@@@++++........   ",
"     ............OOOO....++++@@@@@@@@@@@@@@@@@@@@++++........   ",
"     ....OOOOOOOO........OOOO++++@@@@@@@@@@@@++++OOOO........   ",
"     ....OOOOOOOO........OOOO++++@@@@@@@@@@@@++++OOOO........   ",
"     ....OOOOOOOO........OOOO++++@@@@@@@@@@@@++++OOOO........   ",
"     ....OOOOOOOO........OOOO++++@@@@@@@@@@@@++++OOOO........   ",
"         ................................................       ",
"         ................................................       ",
"         ................................................       ",
"         ................................................       ",
"             ........XXXXXXXXXXXX....XXXXXXXXXXXX....           ",
"             ........XXXXXXXXXXXX....XXXXXXXXXXXX....           ",
"             ........XXXXXXXXXXXX....XXXXXXXXXXXX....           ",
"             ........XXXXXXXXXXXX....XXXXXXXXXXXX....           ",
"                 ....oooooooooooooooo....XXXXoooooooo....       ",
"                 ....oooooooooooooooo....XXXXoooooooo....       ",
"                 ....oooooooooooooooo....XXXXoooooooo....       ",
"                 ....oooooooooooooooo....XXXXoooooooo....       "
};
