/* XPM */
static char *_773ea2f41e24d00bc9e8676b1b7e27cjnkrFvQXYE4PHPGs[] = {
/* columns rows colors chars-per-pixel */
"64 64 124 2 ",
"   c None",
".  c #1B131E",
"X  c #1B131F",
"o  c #1C131E",
"O  c #1A141E",
"+  c #1B141E",
"@  c #1A151E",
"#  c #1B151E",
"$  c #1A141F",
"%  c #1B141F",
"&  c #1C141E",
"*  c #1C141F",
"=  c #321F1F",
"-  c #35231B",
";  c #38251A",
":  c #261820",
">  c #201C27",
",  c #211D27",
"<  c #2F1C22",
"1  c #2F1C23",
"2  c #26252F",
"3  c #2F2B34",
"4  c #2F2C34",
"5  c #373038",
"6  c #442327",
"7  c #432427",
"8  c #582C2B",
"9  c #7C4B13",
"0  c #313641",
"q  c #373F4A",
"w  c #39414C",
"e  c #3D4852",
"r  c #3D4853",
"t  c #42454B",
"y  c #414B55",
"u  c #454F57",
"i  c #424F59",
"p  c #485963",
"a  c #565D61",
"s  c #565E61",
"d  c #59646C",
"f  c #536A74",
"g  c #676569",
"h  c #6B676B",
"j  c #6F686D",
"k  c #646F71",
"l  c #6A7677",
"z  c #72747A",
"x  c #727A7C",
"c  c #9D5D0F",
"v  c #804C16",
"b  c #B76C0C",
"n  c #BE700B",
"m  c #B26514",
"M  c #904137",
"N  c #954338",
"B  c #AA4B3C",
"V  c #DA761B",
"C  c #C65D35",
"Z  c #C85F33",
"A  c #D56F23",
"S  c #C96131",
"D  c #BE5240",
"F  c #BE5340",
"G  c #C66757",
"H  c #CE7B6C",
"J  c #EB8A06",
"K  c #EC8A06",
"L  c #DF9056",
"P  c #EFA441",
"I  c #F0A540",
"U  c #ECAB65",
"Y  c #F4BF7C",
"T  c #5D7984",
"R  c #5F7B86",
"E  c #798B8B",
"W  c #7E8E8D",
"Q  c #7D8F8E",
"!  c #6A8C98",
"~  c #759DA9",
"^  c #7DA4AE",
"/  c #8C8487",
"(  c #819191",
")  c #8E9696",
"_  c #8B9D9B",
"`  c #929CA1",
"'  c #8CA3A2",
"]  c #8CA2AA",
"[  c #91A7A4",
"{  c #95A9A6",
"}  c #99AAA9",
"|  c #86ACB3",
" . c #97B3BB",
".. c #A8A0A1",
"X. c #A6B0AE",
"o. c #D69083",
"O. c #C4BDBC",
"+. c #C4BDBD",
"@. c #F7CD99",
"#. c #B7BEC0",
"$. c #B9C9CD",
"%. c #B0D0CC",
"&. c #B8D4D0",
"*. c #B8D8D1",
"=. c #CAD4D6",
"-. c #C1D8D4",
";. c #C0DCD5",
":. c #C1DCD5",
">. c #C9DFD9",
",. c #EDCCC5",
"<. c #E0D9D7",
"1. c #E1D9D7",
"2. c #D2E2DD",
"3. c #D2E3DD",
"4. c #D6E5DF",
"5. c #DBE7E1",
"6. c #E3E4E3",
"7. c #E3EBE5",
"8. c #ECEEE9",
"9. c #F4F1ED",
"0. c #F5F1ED",
"q. c #F9F3EF",
"w. c #F9F4EF",
"e. c #FDF5F1",
/* pixels */
"                                                                                                                                ",
"                                                                                                                                ",
"                                                                                                                                ",
"                                                                                                                                ",
"                                                                                                                                ",
"                                                                                                                                ",
"                                                                                                                                ",
"                                                                                                                                ",
"                                                                                                                                ",
"                                                                                                                                ",
"                                                                                                                                ",
"                                                                                                                                ",
"                                                                                                                                ",
"                                        + +       + + + + + + + + + + + + + + %                                                 ",
"                                        + +       + + + + + + + + + + + + + + %                                                 ",
"                                    & o + + + & o + + + + + + + + + + + + + + X & & & &                                         ",
"                                  . + + + + + + + + + + + + + + + + + + + + + + + + + + +                                       ",
"                                  . + + + + + + + + + + + + + + + + + + + + + + + + + + %                                       ",
"                                        + + + + + + + + + + + + + + + + + + + + + + + + %                                       ",
"                                        + + + + + + + + + + + + + + + + + + + + + + + + %                                       ",
"                                    & o + + + + , p p z / / / / x l s + + s l x / / d p i & &                                   ",
"                                  . + + + + + + 2 ~ ~ =.e.e.e.e.>.*.[ + + [ *.>.e.e. .~ R + +                                   ",
"                                  . + + + + + + 2 ~ ~ =.e.e.e.e.>.*.[ + + [ *.>.e.e. .~ R + +                                   ",
"                                  . + + + + + + 5 e.e.e.e.1.+ + +.e.e.e.e.e.e.+.+ + +.e.+.+ +                                   ",
"                                  . + + + + + + 5 e.e.e.e.1.+ + +.e.e.e.e.e.e.+.+ + +.e.O.+ +                                   ",
"                                  . + + + + + + 5 e.e.e.e.1.+ + +.e.e.e.e.e.e.O.+ + +.e.O.+ +                                   ",
"                                  . + + + + + + 5 e.e.e.e.1.+ + +.e.e.e.e.e.e.O.+ + +.e.O.+ +                                   ",
"                                  . + + + + + + 5 e.e.e.e.1.+ + +.e.e.e.e.e.e.O.+ + +.e.O.+ +                                   ",
"                                  . + + + + + + 5 e.e.e.e.e.e.e.I K K K J J J P e.e.e.e.+.+ +                                   ",
"                                  . + + + + + + 5 e.e.e.e.e.e.e.I K K K J J J P e.e.e.e.+.+ +                                   ",
"                                  . + + + + + + 3 $.$.6.e.e.e.e.L A A A A U Y @.e.e.=.$.` + +                                   ",
"                                  . + + + + + + 2 ~ ~ =.e.e.e.e.H F F F B ,.e.e.e.e. .~ R + +                                   ",
"                                  + + + + + + + 2 ! ! #.1.1.0.0.o.G G G G ,.e.w.0.0.] ! T + +                                   ",
"                                        + + + + + + + + * 4 *.*.9.e.e.e.e.e.e.8.*.*.t + +                                       ",
"                                        + + + + + + + + + 4 *.*.8.e.e.e.e.e.e.8.*.*.t + +                                       ",
"                                    + * + + + + + + + s Q _ 7.7.9.e.e.e.e.e.e.w.7.7.} Q k + +                                   ",
"                                  + + + + + + + + + + Q *.;.e.e.e.e.e.e.e.e.e.e.e.e.>.*.[ + +                                   ",
"                                  & + + + + > 2 2 + & ( ;.>.e.e.e.e.e.e.e.e.e.e.e.e.3.;.{ + +                                   ",
"                              + + + + + + + f ~ ! + + ..e.e.e.e.e.e.e.e.e.e.e.e.e.e.e.e.+.+ + + + %                             ",
"                              + + + + + + + f ~ ! + + ..e.e.e.e.e.e.e.e.e.e.e.e.e.e.e.e.+.+ + + + %                             ",
"                              + + + + + + + f ~ ! + + ) 3.5.e.e.e.e.e.e.e.e.e.e.e.e.5.3.X.+ + + + %                             ",
"                              + + + + + + + f ~ ! + + Q *.*.e.e.e.e.e.e.e.e.e.e.e.e.>.*.[ + + + + %                             ",
"                              + + > 2 2 2 2 f ! R + + E %.%.0.0.e.e.e.e.e.e.e.e.0.q.*.%.' + + + + %                             ",
"                              + + f ~ ~ ~ ~ r + + + + f ~ | &.*.8.e.e.e.e.e.e.8.*.*.| ~ R + + + + %                             ",
"                              + + f ~ ~ ~ ~ r + + + + f ~ ^ *.*.8.e.e.e.e.e.e.8.*.*.| ~ R + + + + %                             ",
"                                  w r r r r 2 + + + + 0 r y s s g j j j j j j h s s u r q + + +                                 ",
"                                  + + + + + + + + + + + + + + + + + + + + + + + o + + + + + +                                   ",
"                                  + + + + + + + + 1 1 1 1 1 1 1 + + : < < 1 1 1 < 1 + + + + +                                   ",
"                                        + + + + < F F F F F F F 7 * 6 F F F F F F F 7 + %                                       ",
"                                        + + + + < F F F F F F F 7 * 6 F F F F F F F 7 + %                                       ",
"                                            % + = V V V V V V V m c 9 8 8 B F C V V m c 9 + +                                   ",
"                                            + + - J J J J J J J J J b + X N F S J J J J b + +                                   ",
"                                            + + ; K K K K K K K K K n % + M F S K K K K n + +                                   ",
"                                                                                                                                ",
"                                                                                                                                ",
"                                                                                                                                ",
"                                                                                                                                ",
"                                                                                                                                ",
"                                                                                                                                ",
"                                                                                                                                ",
"                                                                                                                                ",
"                                                                                                                                ",
"                                                                                                                                ",
"                                                                                                                                "
};
