/* XPM */
static char *_96d93431b8947cafcc0b6a50d59011ariSixyJluHcAExcz[] = {
/* columns rows colors chars-per-pixel */
"64 64 62 1 ",
"  c None",
". c #203038",
"X c #213038",
"o c #223038",
"O c #3F2E4E",
"+ c #253A45",
"@ c #4E2D59",
"# c #6D2B6F",
"$ c #28404D",
"% c #2A4352",
"& c #2C4959",
"* c #2C4A5A",
"= c #2E4C5F",
"- c #2E4D5F",
"; c #305164",
": c #315569",
"> c #325469",
", c #325569",
"< c #31556A",
"1 c #366079",
"2 c #376079",
"3 c #366179",
"4 c #3D6D8A",
"5 c #3C6D8B",
"6 c #3D6D8B",
"7 c #3C6E8B",
"8 c #3E7191",
"9 c #41799A",
"0 c #417A9B",
"q c #747E83",
"w c #437DA0",
"e c #9A2890",
"r c #56849E",
"t c #688B9C",
"y c #7A939A",
"u c #7B939A",
"i c #4580A4",
"p c #4682A7",
"a c #4685AA",
"s c #4786AB",
"d c #4786AC",
"f c #498AB1",
"g c #4A89B2",
"h c #498AB2",
"j c #4A8AB2",
"k c #4C8FB9",
"l c #4D92BC",
"z c #5E97B6",
"x c #A1A196",
"c c #819FAB",
"v c #82A0AB",
"b c #89A3AA",
"n c #90ADB4",
"m c #B1B3A6",
"M c #BCBDB0",
"N c #D8B78F",
"B c #F0CB9F",
"V c #CEC2AA",
"C c #FFD7A8",
"Z c #89AEC4",
"A c #B9CEDC",
"S c white",
/* pixels */
"                                                                ",
"                                                                ",
"                                                                ",
"                                                                ",
"                                                                ",
"                                                                ",
"                                                                ",
"                                                                ",
"                                                                ",
"                                                                ",
"                                                                ",
"                ooo.ooooooooooo.ooooooo.ooooo                   ",
"                .o.oo.ooo.o....ooo.o.o.ooo.o.                   ",
"              ooo.%1333311=o.,557777777777777;oo                ",
"             .oo.o-wiwi0i01o.5lllllllllllllll,.o                ",
"             ..o..-www0i0i1..5lllllllllllllll,o.                ",
"           oo#eeo.=wwASSo.qSSZwwllllllllllllllllo.o             ",
"           o.#ee.o=wwASS.oqSSZwwllllllllllllllllooo             ",
"           .o#eeo.=wwASSo.qSSZwwlld77dlllllll877ooo             ",
"           o.#ee.o=wwASS.oqSSZwwll7.o6lllllll<oo.oo             ",
"           oo#eeo.=wwASSo.qSSZwwll7oo7lllllll,Xoo.o             ",
"           o.O@@.o=wwASS.oqSSZwwlld77flllllll066.oo             ",
"           .o.o.o.=wwASSo.qSSZwwllllllllllllllllo.o             ",
"           o.o.o.o=wwASS.oqSSZwwllllllllllllllll.oo             ",
"             oo.ee#o.1wwwwwwwwwwllllllllllllllllooo             ",
"             ..oee#.o1wwwwwwwwwwllllllllllllllll.oo             ",
"             oo.ee#o.1wwwwwwwwwwllllllllllllllllo.o             ",
"             ..oee#.o1wwwwwwwwwwllllllllllllllll.oo             ",
"             oo.ee#.o1wwwwwwwwwwllllllllklllllllo.o             ",
"             ..o@@Oo.1wwwwwwwwwwaafll7,,<<>><<,,.oo             ",
"             .o.o.o.o1wwwwwwwwwwwwall<XXXXXXXXo.ooo             ",
"             o.o.o.o.1wwwwwwwwwwwwdll<XXXXXXXX.o.oo             ",
"                   o.o.owwww0hllllllllllo.o                     ",
"                   oo.o.wwwwwhllllllllll.oo                     ",
"                   oo..owwruubnnnnnnnnnno.o                     ",
"                     .o.wwuNNBCCCCCCCCCCooo                     ",
"                     o.owwuNNBCCCCCCCCCCo.o                     ",
"                ooooo.o.wwuNNBCCCCCCCCCC.oo                     ",
"                o.oo.o..wwuNNBCCCCCCCCCCo.o                     ",
"                .o.oo.o.wwuNNBCCCCCCCCCCooo                     ",
"                o.,lllllwwyNNBCCCCCCCCCCooo                     ",
"                .o,lllllwwyNNBCCCCCCCCCCo.o                     ",
"                o.*76whhwwtxxmMMBBBBBVMMooo                     ",
"                .oo.o1wwwwwwwhllNNNNNcll.oo                     ",
"                oo.oo3wwwwwwwfllNNNNNcllo.o                     ",
"                  .oo%--wwphhkllccvvvzll.oo                     ",
"                   oo.o.wwdlllllllllllllo.o                     ",
"                   o.o.owwalllllllllllll.oo                     ",
"                     oo.wwall,.oXX=wwfllooo                     ",
"                     ..owwall,o.X.=wwfll.oo                     ",
"                     .o.ww077;ooXX=ww877oo                      ",
"                     o.oww1Xo   XX=ww-oo                        ",
"                     .o.ww1oo   XX=ww-Xo                        ",
"                     ..o--*     XX+--$                          ",
"                     oo.XXX     XXXXo                           ",
"                     .ooXXX     XXXXo                           ",
"                                                                ",
"                                                                ",
"                                                                ",
"                                                                ",
"                                                                ",
"                                                                ",
"                                                                ",
"                                                                "
};
