/* XPM */
static char *_d50ba4045804064cf2202105493a180QiHCP7k5IHdOlPY7[] = {
/* columns rows colors chars-per-pixel */
"64 64 10 1 ",
"  c None",
". c #762B1A",
"X c #483838",
"o c #475839",
"O c #8E2C21",
"+ c #D43318",
"@ c #9B685B",
"# c #AC7956",
"$ c #F37160",
"% c #B59243",
/* pixels */
"                                                                ",
"                                                                ",
"                                                                ",
"                                                                ",
"                                                                ",
"                                                                ",
"                                                                ",
"                                                                ",
"                                                                ",
"                                                                ",
"                                                                ",
"                                                                ",
"                        XXXX++++++++++++++++                    ",
"                        XXXX++++++++++++++++                    ",
"                        XXXX++++++++++++++++                    ",
"                        XXXX++++++++++++++++                    ",
"                        XXXX++++++++++++++++$$$$                ",
"                        XXXX++++++++++++++++$$$$                ",
"                        XXXX++++++++++++++++$$$$                ",
"                        XXXX++++++++++++++++$$$$                ",
"                        XXXX....OOOO++++$$$$OOOO                ",
"                        XXXX....OOOO++++$$$$OOOO                ",
"                        XXXX....OOOO++++$$$$OOOO                ",
"                        XXXX....OOOO++++$$$$OOOO                ",
"                        XXXX        $$$$....                    ",
"                        XXXX        $$$$....                    ",
"                        XXXX        $$$$....                    ",
"                        XXXX        $$$$....                    ",
"                        ####        ........++++++++++++OOOO    ",
"                        ####        ........++++++++++++OOOO    ",
"                        ####        ........++++++++++++OOOO    ",
"                        ####        ........++++++++++++OOOO    ",
"                        ####        ........OOOOOOOO            ",
"                        ####        ........OOOOOOOO            ",
"                        ####        ........OOOOOOOO            ",
"                        ####        ........OOOOOOOO            ",
"                        XXXX                                    ",
"                        XXXX                                    ",
"                        XXXX                                    ",
"                        XXXX                                    ",
"                        XXXX                                    ",
"                        XXXX                                    ",
"                        XXXX                                    ",
"                        XXXX                                    ",
"            oooooooo@@@@%%%%@@@@                                ",
"            oooooooo@@@@%%%%@@@@                                ",
"            oooooooo@@@@%%%%@@@@                                ",
"            oooooooo@@@@%%%%@@@@                                ",
"    oooooooooooo@@@@@@@@@@@@%%%%%%%%                            ",
"    oooooooooooo@@@@@@@@@@@@%%%%%%%%                            ",
"    oooooooooooo@@@@@@@@@@@@%%%%%%%%                            ",
"    oooooooooooo@@@@@@@@@@@@%%%%%%%%                            ",
"                oooo@@@@oooo%%%%                                ",
"                oooo@@@@oooo%%%%                                ",
"                oooo@@@@oooo%%%%                                ",
"                oooo@@@@oooo%%%%                                ",
"                                                                ",
"                                                                ",
"                                                                ",
"                                                                ",
"                                                                ",
"                                                                ",
"                                                                ",
"                                                                "
};
