/* XPM */
static char *_243f728a6624e4ac4d253a4701edc98JdhFwFqXCPkCSdtx[] = {
/* columns rows colors chars-per-pixel */
"64 64 7 1 ",
"  c None",
". c #376A25",
"X c #524A28",
"o c #475839",
"O c #378C38",
"+ c #37AD40",
"@ c #3FC94F",
/* pixels */
"                                            ++++                ",
"                                            ++++                ",
"                                            ++++                ",
"                                            ++++                ",
"                                            @@@@@@@@            ",
"                                            @@@@@@@@            ",
"                                            @@@@@@@@            ",
"                                            @@@@@@@@            ",
"                @@@@                    OOOO@@@@@@@@@@@@        ",
"                @@@@                    OOOO@@@@@@@@@@@@        ",
"                @@@@                    OOOO@@@@@@@@@@@@        ",
"                @@@@                    OOOO@@@@@@@@@@@@        ",
"                ++++@@@@            OOOO++++OOOO++++@@@@OOOO    ",
"                ++++@@@@            OOOO++++OOOO++++@@@@OOOO    ",
"                ++++@@@@            OOOO++++OOOO++++@@@@OOOO    ",
"                ++++@@@@            OOOO++++OOOO++++@@@@OOOO    ",
"                @@@@@@@@@@@@        ....OOOOOOOO++++OOOO        ",
"                @@@@@@@@@@@@        ....OOOOOOOO++++OOOO        ",
"                @@@@@@@@@@@@        ....OOOOOOOO++++OOOO        ",
"                @@@@@@@@@@@@        ....OOOOOOOO++++OOOO        ",
"            OOOO++++@@@@@@@@....++++++++........OOOOOOOO++++    ",
"            OOOO++++@@@@@@@@....++++++++........OOOOOOOO++++    ",
"            OOOO++++@@@@@@@@....++++++++........OOOOOOOO++++    ",
"            OOOO++++@@@@@@@@....++++++++........OOOOOOOO++++    ",
"        OOOOOOOOOOOO++++@@@@@@@@OOOO....OOOOOOOO++++@@@@@@@@    ",
"        OOOOOOOOOOOO++++@@@@@@@@OOOO....OOOOOOOO++++@@@@@@@@    ",
"        OOOOOOOOOOOO++++@@@@@@@@OOOO....OOOOOOOO++++@@@@@@@@    ",
"        OOOOOOOOOOOO++++@@@@@@@@OOOO....OOOOOOOO++++@@@@@@@@    ",
"        oooo........OOOO++++ooooXXXXOOOOOOOO++++++++++++OOOOOOOO",
"        oooo........OOOO++++ooooXXXXOOOOOOOO++++++++++++OOOOOOOO",
"        oooo........OOOO++++ooooXXXXOOOOOOOO++++++++++++OOOOOOOO",
"        oooo........OOOO++++ooooXXXXOOOOOOOO++++++++++++OOOOOOOO",
"            OOOO++++@@@@@@@@++++ooooXXXX........OOOO....OOOO    ",
"            OOOO++++@@@@@@@@++++ooooXXXX........OOOO....OOOO    ",
"            OOOO++++@@@@@@@@++++ooooXXXX........OOOO....OOOO    ",
"            OOOO++++@@@@@@@@++++ooooXXXX........OOOO....OOOO    ",
"        ....OOOOOOOO++++OOOOOOOO++++OOOOOOOO++++OOOO++++++++    ",
"        ....OOOOOOOO++++OOOOOOOO++++OOOOOOOO++++OOOO++++++++    ",
"        ....OOOOOOOO++++OOOOOOOO++++OOOOOOOO++++OOOO++++++++    ",
"        ....OOOOOOOO++++OOOOOOOO++++OOOOOOOO++++OOOO++++++++    ",
"    oooo........++++++++@@@@@@@@@@@@OOOOOOOO++++++++++++++++OOOO",
"    oooo........++++++++@@@@@@@@@@@@OOOOOOOO++++++++++++++++OOOO",
"    oooo........++++++++@@@@@@@@@@@@OOOOOOOO++++++++++++++++OOOO",
"    oooo........++++++++@@@@@@@@@@@@OOOOOOOO++++++++++++++++OOOO",
"    ....OOOOOOOO........++++OOOOoooo................OOOOOOOOoooo",
"    ....OOOOOOOO........++++OOOOoooo................OOOOOOOOoooo",
"    ....OOOOOOOO........++++OOOOoooo................OOOOOOOOoooo",
"    ....OOOOOOOO........++++OOOOoooo................OOOOOOOOoooo",
"        ....OOOOOOOOOOOO++++@@@@++++XXXXoooo........oooooooo    ",
"        ....OOOOOOOOOOOO++++@@@@++++XXXXoooo........oooooooo    ",
"        ....OOOOOOOOOOOO++++@@@@++++XXXXoooo........oooooooo    ",
"        ....OOOOOOOOOOOO++++@@@@++++XXXXoooo........oooooooo    ",
"    XXXX........OOOO++++OOOO++++++++    XXXXooooooooXXXXoooo    ",
"    XXXX........OOOO++++OOOO++++++++    XXXXooooooooXXXXoooo    ",
"    XXXX........OOOO++++OOOO++++++++    XXXXooooooooXXXXoooo    ",
"    XXXX........OOOO++++OOOO++++++++    XXXXooooooooXXXXoooo    ",
"    ooooXXXX................OOOOoooo                            ",
"    ooooXXXX................OOOOoooo                            ",
"    ooooXXXX................OOOOoooo                            ",
"    ooooXXXX................OOOOoooo                            ",
"        ooooooooXXXXXXXXoooooooo                                ",
"        ooooooooXXXXXXXXoooooooo                                ",
"        ooooooooXXXXXXXXoooooooo                                ",
"        ooooooooXXXXXXXXoooooooo                                "
};
