/* XPM */
static char *c23be4d8899b47d9eab3882a88efeeecBSD9v07Gfoh94vcA[] = {
/* columns rows colors chars-per-pixel */
"64 64 9 1 ",
"  c None",
". c #383827",
"X c #264928",
"o c #376A25",
"O c #524A28",
"+ c #475839",
"@ c #378C38",
"# c #37AD40",
"$ c #3FC94F",
/* pixels */
"            oooo            ####                @@@@####        ",
"            oooo            ####                @@@@####        ",
"            oooo            ####                @@@@####        ",
"            oooo            ####                @@@@####        ",
"        ####$$$$oooo        $$$$$$$$        @@@@####$$$$        ",
"        ####$$$$oooo        $$$$$$$$        @@@@####$$$$        ",
"        ####$$$$oooo        $$$$$$$$        @@@@####$$$$        ",
"        ####$$$$oooo        $$$$$$$$        @@@@####$$$$        ",
"        $$$$$$$$####    oooo$$$$$$$$$$$$    @@@@####$$$$$$$$    ",
"        $$$$$$$$####    oooo$$$$$$$$$$$$    @@@@####$$$$$$$$    ",
"        $$$$$$$$####    oooo$$$$$$$$$$$$    @@@@####$$$$$$$$    ",
"        $$$$$$$$####    oooo$$$$$$$$$$$$    @@@@####$$$$$$$$    ",
"    oooo@@@@########oooo@@@@@@@@####$$$$@@@@@@@@@@@@########oooo",
"    oooo@@@@########oooo@@@@@@@@####$$$$@@@@@@@@@@@@########oooo",
"    oooo@@@@########oooo@@@@@@@@####$$$$@@@@@@@@@@@@########oooo",
"    oooo@@@@########oooo@@@@@@@@####$$$$@@@@@@@@@@@@########oooo",
"oooooooo@@@@@@@@####$$$$oooo@@@@####@@@@++++@@@@####@@@@####@@@@",
"oooooooo@@@@@@@@####$$$$oooo@@@@####@@@@++++@@@@####@@@@####@@@@",
"oooooooo@@@@@@@@####$$$$oooo@@@@####@@@@++++@@@@####@@@@####@@@@",
"oooooooo@@@@@@@@####$$$$oooo@@@@####@@@@++++@@@@####@@@@####@@@@",
"++++oooooooo####$$$$++++++++oooo@@@@@@@@    ####OOOO$$$$$$$$++++",
"++++oooooooo####$$$$++++++++oooo@@@@@@@@    ####OOOO$$$$$$$$++++",
"++++oooooooo####$$$$++++++++oooo@@@@@@@@    ####OOOO$$$$$$$$++++",
"++++oooooooo####$$$$++++++++oooo@@@@@@@@    ####OOOO$$$$$$$$++++",
"XXXXXXXXoooo@@@@####$$$$....++++OOOO@@@@$$$$....@@@@$$$$$$$$    ",
"XXXXXXXXoooo@@@@####$$$$....++++OOOO@@@@$$$$....@@@@$$$$$$$$    ",
"XXXXXXXXoooo@@@@####$$$$....++++OOOO@@@@$$$$....@@@@$$$$$$$$    ",
"XXXXXXXXoooo@@@@####$$$$....++++OOOO@@@@$$$$....@@@@$$$$$$$$    ",
"        ....@@@@@@@@@@@@XXXX....@@@@@@@@@@@@$$$$####@@@@####$$$$",
"        ....@@@@@@@@@@@@XXXX....@@@@@@@@@@@@$$$$####@@@@####$$$$",
"        ....@@@@@@@@@@@@XXXX....@@@@@@@@@@@@$$$$####@@@@####$$$$",
"        ....@@@@@@@@@@@@XXXX....@@@@@@@@@@@@$$$$####@@@@####$$$$",
"        oooo@@@@############XXXXoooooooo@@@@@@@@@@@@@@@@####@@@@",
"        oooo@@@@############XXXXoooooooo@@@@@@@@@@@@@@@@####@@@@",
"        oooo@@@@############XXXXoooooooo@@@@@@@@@@@@@@@@####@@@@",
"        oooo@@@@############XXXXoooooooo@@@@@@@@@@@@@@@@####@@@@",
"    ++++$$$$oooo@@@@####$$$$@@@@@@@@oooooooo@@@@####oooo@@@@@@@@",
"    ++++$$$$oooo@@@@####$$$$@@@@@@@@oooooooo@@@@####oooo@@@@@@@@",
"    ++++$$$$oooo@@@@####$$$$@@@@@@@@oooooooo@@@@####oooo@@@@@@@@",
"    ++++$$$$oooo@@@@####$$$$@@@@@@@@oooooooo@@@@####oooo@@@@@@@@",
"    @@@@####$$$$@@@@@@@@####$$$$$$$$oooooooooooo$$$$$$$$++++....",
"    @@@@####$$$$@@@@@@@@####$$$$$$$$oooooooooooo$$$$$$$$++++....",
"    @@@@####$$$$@@@@@@@@####$$$$$$$$oooooooooooo$$$$$$$$++++....",
"    @@@@####$$$$@@@@@@@@####$$$$$$$$oooooooooooo$$$$$$$$++++....",
"....@@@@@@@@@@@@++++....$$$$$$$$####$$$$++++@@@@$$$$$$$$$$$$    ",
"....@@@@@@@@@@@@++++....$$$$$$$$####$$$$++++@@@@$$$$$$$$$$$$    ",
"....@@@@@@@@@@@@++++....$$$$$$$$####$$$$++++@@@@$$$$$$$$$$$$    ",
"....@@@@@@@@@@@@++++....$$$$$$$$####$$$$++++@@@@$$$$$$$$$$$$    ",
"oooo@@@@############oooo@@@@########oooo@@@@####@@@@####$$$$@@@@",
"oooo@@@@############oooo@@@@########oooo@@@@####@@@@####$$$$@@@@",
"oooo@@@@############oooo@@@@########oooo@@@@####@@@@####$$$$@@@@",
"oooo@@@@############oooo@@@@########oooo@@@@####@@@@####$$$$@@@@",
"oooooooo@@@@####oooooooo@@@@@@@@####$$$$oooo@@@@@@@@####@@@@    ",
"oooooooo@@@@####oooooooo@@@@@@@@####$$$$oooo@@@@@@@@####@@@@    ",
"oooooooo@@@@####oooooooo@@@@@@@@####$$$$oooo@@@@@@@@####@@@@    ",
"oooooooo@@@@####oooooooo@@@@@@@@####$$$$oooo@@@@@@@@####@@@@    ",
"++++oooo@@@@@@@@++++oooooooo####$$$$++++....oooooooo@@@@@@@@####",
"++++oooo@@@@@@@@++++oooooooo####$$$$++++....oooooooo@@@@@@@@####",
"++++oooo@@@@@@@@++++oooooooo####$$$$++++....oooooooo@@@@@@@@####",
"++++oooo@@@@@@@@++++oooooooo####$$$$++++....oooooooo@@@@@@@@####",
"    ++++OOOOOOOO    ++++oooo@@@@########    ....OOOO++++        ",
"    ++++OOOOOOOO    ++++oooo@@@@########    ....OOOO++++        ",
"    ++++OOOOOOOO    ++++oooo@@@@########    ....OOOO++++        ",
"    ++++OOOOOOOO    ++++oooo@@@@########    ....OOOO++++        "
};
